PathFileType	4	(X/Y/Z)	C:/Users/opensim2020/Desktop/walking_exp_matlab/subject02_walking08_straight_02.trc	
DataRate	CameraRate	NumFrames	NumMarkers	Units	OrigDataRate	OrigDataStartFrame	OrigNumFrames	
100.00	100.00	4	41	mm	100.00	1469	259	
Frame#	Time	LFHD			RFHD			LBHD			RBHD			C7			T10			CLAV			STRN			RBAK			LSHO			LUPA			LELB			LFRM			LWRA			LWRB			LFIN			RSHO			RUPA			RELB			RFRM			RWRA			RWRB			RFIN			LASI			RASI			LPSI			RPSI			LTHI			LKNE			LTIB			LANK			LHEE			LTOE			RTHI			RKNE			RTIB			RANK			RHEE			RTOE			*39			*40			
		X1	Y1	Z1	X2	Y2	Z2	X3	Y3	Z3	X4	Y4	Z4	X5	Y5	Z5	X6	Y6	Z6	X7	Y7	Z7	X8	Y8	Z8	X9	Y9	Z9	X10	Y10	Z10	X11	Y11	Z11	X12	Y12	Z12	X13	Y13	Z13	X14	Y14	Z14	X15	Y15	Z15	X16	Y16	Z16	X17	Y17	Z17	X18	Y18	Z18	X19	Y19	Z19	X20	Y20	Z20	X21	Y21	Z21	X22	Y22	Z22	X23	Y23	Z23	X24	Y24	Z24	X25	Y25	Z25	X26	Y26	Z26	X27	Y27	Z27	X28	Y28	Z28	X29	Y29	Z29	X30	Y30	Z30	X31	Y31	Z31	X32	Y32	Z32	X33	Y33	Z33	X34	Y34	Z34	X35	Y35	Z35	X36	Y36	Z36	X37	Y37	Z37	X38	Y38	Z38	X39	Y39	Z39	X40	Y40	Z40	X41	Y41	Z41	

1	0.000	1414.61609	998.60876	1744.19885	1272.78540	994.03412	1726.49060	1421.58948	1110.71301	1643.41333	1280.53833	1117.82288	1622.27844	1343.11096	1146.15100	1517.00867	1324.36548	1203.21765	1243.93909	1364.90503	1007.99933	1446.85254	1352.26807	957.80725	1273.47192	1265.83289	1199.11157	1350.15466	1528.51233	1091.13245	1482.24219	1603.57642	1138.06458	1284.96484	1610.41736	1163.63098	1146.81262	1622.78760	1174.59534	1014.55792	1593.84241	1135.94678	882.32404	1625.38623	1182.58899	891.60950	1626.74500	1173.97607	824.44171	1165.14685	1045.38464	1489.58252	1073.34863	1040.96106	1297.44958	1058.46753	1002.01050	1154.34546	1052.79297	947.22937	1046.16370	1087.56018	878.17279	934.39600	1046.95056	915.42999	919.88727	1054.51440	863.98273	868.95386	1475.30786	971.94165	986.08551	1216.84106	961.63959	962.48846	1383.25586	1180.95288	1023.00397	1269.17920	1179.18640	1021.89203	1560.34595	984.13409	687.99371	1543.03796	939.16644	492.42441	1560.09949	929.76300	300.22964	1559.12427	846.40601	89.86353	1506.42725	864.20337	49.18402	1582.60498	690.96368	94.48995	1164.45776	1082.66687	662.28363	1208.56165	1131.47266	457.33374	1198.09143	1219.77490	289.90936	1233.76721	1291.94470	108.58298	1284.11963	1343.84167	59.59853	1240.79578	1148.09607	41.71812	1323.20190	1110.78687	1787.04309	-3357.52563	2845.80054	1034.12622 
2	0.010	1417.52014	991.29431	1743.60815	1275.31335	986.62396	1725.59814	1424.69739	1103.01624	1642.50635	1283.67871	1110.22644	1620.94287	1346.64587	1138.57581	1515.95776	1328.03821	1195.14648	1242.61938	1368.04456	1000.33832	1446.00647	1354.82935	949.57452	1272.66760	1269.43237	1191.52258	1348.98413	1532.21814	1083.14844	1480.98059	1606.93250	1128.83984	1283.30444	1613.43591	1153.71252	1145.03381	1626.60608	1165.03625	1013.05994	1598.67444	1126.58252	880.49506	1629.79968	1173.47705	890.30865	1631.57141	1164.90857	823.05255	1168.36902	1038.21838	1488.79907	1077.00610	1034.22534	1296.59497	1062.23914	995.56641	1153.23828	1056.17102	941.15845	1044.72290	1091.26904	872.67419	932.92712	1050.37793	910.15637	918.43597	1058.01880	858.54163	867.44556	1478.76697	962.63086	985.30957	1219.94666	952.94910	961.80463	1387.31152	1172.11829	1021.96765	1273.33386	1170.98120	1020.86530	1562.95020	974.50989	686.83954	1544.96619	931.27179	490.81808	1561.02148	924.04291	298.24344	1558.63770	843.57428	87.06564	1505.58130	861.56262	46.44355	1582.22998	688.13715	89.67867	1166.95923	1076.96204	662.15784	1209.91882	1126.72217	457.26636	1198.74280	1217.03870	291.02771	1233.63391	1291.24731	110.18403	1283.81152	1343.44104	61.63505	1240.59644	1147.92981	41.64684	1325.76843	1103.47302	1785.78308	-3357.46045	2845.97705	1034.02051 
3	0.020	1420.16089	983.79279	1742.95435	1278.17505	979.57782	1724.55225	1427.86169	1095.33557	1641.65784	1287.02271	1102.87000	1619.78101	1350.28735	1131.08447	1514.85840	1331.81946	1186.99988	1241.25671	1371.31775	992.63812	1445.23853	1357.80359	941.22858	1272.07678	1272.89380	1183.57458	1347.58142	1535.70093	1074.99670	1479.63843	1609.94543	1119.31689	1281.34082	1616.86877	1143.85144	1143.45850	1630.33447	1155.26563	1011.58795	1603.25037	1116.99536	878.78070	1634.05823	1163.81006	888.75439	1636.29907	1155.43347	821.60272	1171.72339	1031.14478	1488.02112	1080.23792	1027.39075	1295.54053	1066.00269	989.22150	1152.24768	1059.90588	935.18127	1043.75098	1094.42285	867.11029	931.18054	1053.93201	904.88184	917.06665	1061.23828	854.01630	865.70160	1482.31616	953.13843	984.57263	1223.00708	945.04358	960.66821	1391.38538	1163.16980	1020.97595	1277.61719	1162.51758	1019.92322	1565.63623	964.71436	685.71173	1546.64087	923.52893	489.08124	1561.76636	918.98767	296.14297	1557.77087	841.53040	83.71432	1505.49329	861.37891	44.15152	1581.92822	686.64276	84.46402	1169.10071	1070.77295	661.88879	1211.10315	1121.82849	457.17978	1199.36316	1214.05554	292.07004	1233.42896	1290.29382	111.89145	1283.41943	1343.02417	63.85408	1240.29236	1147.67590	41.41444	1328.79639	1096.36206	1784.86560	-3360.31592	2845.25269	1033.99011 
4	0.030	1422.87329	976.33606	1742.30078	1280.79822	972.19507	1723.34338	1431.08801	1087.67529	1640.83850	1290.39929	1095.48621	1618.60791	1354.01074	1123.57129	1513.68652	1335.85168	1178.64453	1239.79346	1374.63086	984.86450	1444.45288	1361.16284	932.83112	1271.69836	1276.55908	1175.52820	1346.22241	1539.32593	1066.92029	1478.37939	1613.46143	1110.07019	1279.79492	1620.08313	1133.77637	1141.69617	1634.17480	1145.24512	1010.12317	1607.58521	1107.15210	877.32117	1638.38000	1153.89270	887.43323	1641.27124	1145.65479	820.35242	1175.08606	1023.98291	1487.24426	1083.75073	1020.41241	1294.78638	1069.86145	982.96216	1151.22705	1063.54675	929.62225	1042.39661	1097.73853	861.87286	929.58978	1057.40979	899.81720	915.68951	1064.76917	849.23486	863.90869	1486.04431	943.47076	983.84155	1226.12268	936.37012	959.61749	1395.70569	1153.96301	1019.98761	1282.04736	1153.84180	1018.92090	1568.33289	954.77924	684.51141	1548.69519	915.92212	487.34003	1562.53247	914.56049	293.99295	1557.02063	840.78387	80.42889	1504.17432	860.78027	41.19315	1581.20679	685.93909	78.34856	1171.57617	1064.22461	661.63196	1212.45581	1116.48035	457.05658	1200.05750	1210.72778	293.07162	1233.06580	1289.19922	113.76060	1283.05725	1342.45386	66.27986	1240.13013	1147.56799	41.52212	1331.54382	1089.11914	1783.63977	-3360.30835	2845.16553	1034.01929 
